<?xml version="1.0" encoding="UTF-8"?>
<svg id="Layer_1" xmlns="http://www.w3.org/2000/svg" version="1.1" viewBox="0 0 1024 1024">
  <!-- Generator: Adobe Illustrator 29.2.1, SVG Export Plug-In . SVG Version: 2.1.0 Build 116)  -->
  <path d="M980.8,312.4c-25.8-60.9-62.6-115.6-109.6-162.6-47-47-101.7-83.8-162.6-109.6C645.5,13.5,578.5,0,509.5,0s-136,13.5-199.1,40.2c-60.9,25.8-115.6,62.6-162.6,109.6-47,47-83.8,101.7-109.6,162.6C11.5,375.5-2,442.5-2,511.5s13.5,136,40.2,199.1c25.8,60.9,62.6,115.6,109.6,162.6,47,47,101.7,83.8,162.6,109.6,63.1,26.7,130.1,40.2,199.1,40.2s136-13.5,199.1-40.2c60.9-25.8,115.6-62.6,162.6-109.6,47-47,83.8-101.7,109.6-162.6,26.7-63.1,40.2-130.1,40.2-199.1s-13.5-136-40.2-199.1ZM761,412.5c0,4.5,0,10.5-.7,16.4-1.2,9.7-4.2,16.8-9,21.7-7.7,7.7-18.8,7.9-22.5,7.9-3.1,0-6.2-.1-9.1-.3h-.8c-2.2-.2-4.2-.3-5.8-.3-.3,0-.6,0-1,0-30.5,0-60.3-7.8-86.9-22.7v178.1c0,36-10.6,70.9-30.5,100.8-20,29.9-48.1,53.1-81.3,66.8-22.1,9.2-45.6,13.8-69.2,13.8s-23.7-1.2-35.4-3.5c-35.2-7-67.3-24.2-92.7-49.7-25.4-25.5-42.5-57.6-49.5-92.9-7-35.3-3.4-71.6,10.3-104.8,13.7-33.3,36.8-61.4,66.7-81.4,29.9-20,64.7-30.6,100.6-30.6s2,0,3.2,0h.1c3.8,0,8.5-.2,13,.2,9.3.8,16.2,3.7,21.2,8.7,4.9,4.9,7.8,11.6,9,20.7.7,5.6.7,11.3.7,15.5v1.4c0,1.4,0,3.1.2,5v2c.2,2.8.3,6.1.1,9.4-.2,3.7-.6,14.9-8.2,22.5-7.5,7.6-18.9,8.1-22.6,8.3-3.4.2-6.7,0-9.5,0h-2.3c-1.9-.2-3.5-.2-4.9-.2-17.4,0-34.3,5.1-48.8,14.8-14.5,9.7-25.7,23.4-32.4,39.5-6.7,16.2-8.4,33.8-5,50.9,3.4,17.1,11.7,32.7,24.1,45.1,12.3,12.4,27.9,20.7,45,24.1,17.1,3.4,34.6,1.7,50.7-5,16.1-6.7,29.7-17.9,39.4-32.4,9.7-14.5,14.8-31.5,14.8-48.9v-336.9c0-1.5-.1-3.4-.2-5.6v-1.1c-.2-2.7-.4-6-.3-9.2,0-3.7.4-14.9,8-22.6,5-5,12-7.8,21.7-8.7,4.8-.5,9.8-.4,13.8-.3,1.1,0,2.2,0,3.1,0s2,0,3.1,0c3.9,0,9.3-.1,14.3.3,10.1.9,17.4,3.8,22.3,8.7,7.6,7.7,7.9,18.9,8,22.6,0,3.3,0,6.5-.2,9.2v1.1c-.2,2.2-.3,4.1-.3,5.6,0,23.5,9.1,45.7,25.7,62.3,16.6,16.6,38.6,25.8,62.1,25.8s1.9,0,2.9,0h.2c3.9,0,8.8-.1,13.6.3,6.5.6,11.9,2.2,16.2,4.7l.6-.6,4.6,4.6,4.6,4.6-.6.6c2.5,4.2,4.2,9.3,5,15.6.7,5.6.7,11.3.7,15.5v1.4s0,1.3,0,1.3Z"/>
</svg>